<mxfile host="www.draw.io" modified="2020-04-15T14:02:53.687Z" agent="5.0 (Windows NT 10.0; Win64; x64) AppleWebKit/537.36 (KHTML, like Gecko) Chrome/81.0.4044.92 Safari/537.36" etag="3hgJEDjwOsra2_eymK0D" version="12.9.10" type="github">
  <diagram id="DGuxC2egyGF5mKbaKbJq" name="Page-1">
    <mxGraphModel dx="1342" dy="788" grid="1" gridSize="10" guides="1" tooltips="1" connect="1" arrows="1" fold="1" page="1" pageScale="1" pageWidth="1100" pageHeight="850" math="0" shadow="0">
      <root>
        <mxCell id="0" />
        <mxCell id="1" parent="0" />
        <mxCell id="kNCdPxVCbltuEIP-QBrs-1" value="" style="shape=link;html=1;strokeWidth=3;fillColor=#d80073;strokeColor=#A50040;" edge="1" parent="1">
          <mxGeometry width="50" height="50" relative="1" as="geometry">
            <mxPoint x="210" y="720" as="sourcePoint" />
            <mxPoint x="210" y="80" as="targetPoint" />
          </mxGeometry>
        </mxCell>
        <mxCell id="kNCdPxVCbltuEIP-QBrs-2" value="" style="shape=link;html=1;strokeWidth=3;fillColor=#d80073;strokeColor=#A50040;" edge="1" parent="1">
          <mxGeometry width="50" height="50" relative="1" as="geometry">
            <mxPoint x="770" y="720" as="sourcePoint" />
            <mxPoint x="770" y="80" as="targetPoint" />
          </mxGeometry>
        </mxCell>
        <mxCell id="kNCdPxVCbltuEIP-QBrs-3" value="" style="endArrow=classic;html=1;strokeColor=#000000;strokeWidth=1;" edge="1" parent="1">
          <mxGeometry width="50" height="50" relative="1" as="geometry">
            <mxPoint x="210" y="120" as="sourcePoint" />
            <mxPoint x="770" y="160" as="targetPoint" />
          </mxGeometry>
        </mxCell>
        <mxCell id="kNCdPxVCbltuEIP-QBrs-4" value="" style="endArrow=classic;html=1;strokeColor=#FF8000;strokeWidth=1;" edge="1" parent="1">
          <mxGeometry width="50" height="50" relative="1" as="geometry">
            <mxPoint x="210" y="120" as="sourcePoint" />
            <mxPoint x="770" y="160" as="targetPoint" />
          </mxGeometry>
        </mxCell>
        <mxCell id="kNCdPxVCbltuEIP-QBrs-9" value="&lt;font style=&quot;font-size: 8px&quot; color=&quot;#ff8000&quot;&gt;Session-1(srcPort1)-&lt;b&gt;SYN&lt;/b&gt;&lt;/font&gt;" style="text;html=1;align=center;verticalAlign=middle;resizable=0;points=[];" vertex="1" connectable="0" parent="kNCdPxVCbltuEIP-QBrs-4">
          <mxGeometry x="-0.0303" y="1" relative="1" as="geometry">
            <mxPoint as="offset" />
          </mxGeometry>
        </mxCell>
        <mxCell id="kNCdPxVCbltuEIP-QBrs-5" value="" style="endArrow=classic;html=1;strokeColor=#FF8000;strokeWidth=1;" edge="1" parent="1">
          <mxGeometry width="50" height="50" relative="1" as="geometry">
            <mxPoint x="210" y="140" as="sourcePoint" />
            <mxPoint x="770" y="180" as="targetPoint" />
          </mxGeometry>
        </mxCell>
        <mxCell id="kNCdPxVCbltuEIP-QBrs-10" value="&lt;font color=&quot;#ff8000&quot;&gt;&lt;span style=&quot;font-size: 8px&quot;&gt;Session-2(srcPort2)&lt;/span&gt;&lt;b style=&quot;font-size: 8px&quot;&gt;SYN&lt;/b&gt;&lt;/font&gt;&lt;span style=&quot;font-size: 8px&quot;&gt;&lt;br&gt;&lt;/span&gt;" style="text;html=1;align=center;verticalAlign=middle;resizable=0;points=[];" vertex="1" connectable="0" parent="kNCdPxVCbltuEIP-QBrs-5">
          <mxGeometry x="-0.0445" y="-1" relative="1" as="geometry">
            <mxPoint as="offset" />
          </mxGeometry>
        </mxCell>
        <mxCell id="kNCdPxVCbltuEIP-QBrs-6" value="" style="endArrow=classic;html=1;strokeColor=#FF8000;strokeWidth=1;" edge="1" parent="1">
          <mxGeometry width="50" height="50" relative="1" as="geometry">
            <mxPoint x="210" y="160" as="sourcePoint" />
            <mxPoint x="770" y="200" as="targetPoint" />
          </mxGeometry>
        </mxCell>
        <mxCell id="kNCdPxVCbltuEIP-QBrs-11" value="&lt;font color=&quot;#ff8000&quot;&gt;&lt;span style=&quot;font-size: 8px&quot;&gt;Session-3(srcPort3)&lt;/span&gt;&lt;b style=&quot;font-size: 8px&quot;&gt;SYN&lt;/b&gt;&lt;/font&gt;" style="text;html=1;align=center;verticalAlign=middle;resizable=0;points=[];" vertex="1" connectable="0" parent="kNCdPxVCbltuEIP-QBrs-6">
          <mxGeometry x="-0.0839" y="-1" relative="1" as="geometry">
            <mxPoint as="offset" />
          </mxGeometry>
        </mxCell>
        <mxCell id="kNCdPxVCbltuEIP-QBrs-7" value="" style="endArrow=classic;html=1;strokeColor=#FF8000;strokeWidth=1;" edge="1" parent="1">
          <mxGeometry width="50" height="50" relative="1" as="geometry">
            <mxPoint x="210" y="200" as="sourcePoint" />
            <mxPoint x="770" y="240" as="targetPoint" />
          </mxGeometry>
        </mxCell>
        <mxCell id="kNCdPxVCbltuEIP-QBrs-12" value="&lt;font color=&quot;#ff8000&quot;&gt;&lt;span style=&quot;font-size: 8px&quot;&gt;Session-n(srcPortn)&lt;/span&gt;&lt;b style=&quot;font-size: 8px&quot;&gt;SYN&lt;/b&gt;&lt;/font&gt;" style="text;html=1;align=center;verticalAlign=middle;resizable=0;points=[];" vertex="1" connectable="0" parent="kNCdPxVCbltuEIP-QBrs-7">
          <mxGeometry x="-0.0965" relative="1" as="geometry">
            <mxPoint as="offset" />
          </mxGeometry>
        </mxCell>
        <mxCell id="kNCdPxVCbltuEIP-QBrs-8" value="" style="endArrow=none;dashed=1;html=1;strokeColor=#FF8000;strokeWidth=1;" edge="1" parent="1">
          <mxGeometry width="50" height="50" relative="1" as="geometry">
            <mxPoint x="490" y="210" as="sourcePoint" />
            <mxPoint x="490" y="190" as="targetPoint" />
          </mxGeometry>
        </mxCell>
        <mxCell id="kNCdPxVCbltuEIP-QBrs-14" value="" style="endArrow=classic;html=1;strokeColor=#999900;strokeWidth=1;" edge="1" parent="1">
          <mxGeometry width="50" height="50" relative="1" as="geometry">
            <mxPoint x="770" y="160" as="sourcePoint" />
            <mxPoint x="210" y="300" as="targetPoint" />
          </mxGeometry>
        </mxCell>
        <mxCell id="kNCdPxVCbltuEIP-QBrs-15" value="&lt;font style=&quot;font-size: 8px&quot; color=&quot;#4d9900&quot;&gt;Session-1(srcPort1)-&lt;b&gt;SYN, ACK&lt;/b&gt;&lt;/font&gt;" style="text;html=1;align=center;verticalAlign=middle;resizable=0;points=[];" vertex="1" connectable="0" parent="kNCdPxVCbltuEIP-QBrs-14">
          <mxGeometry x="-0.0303" y="1" relative="1" as="geometry">
            <mxPoint as="offset" />
          </mxGeometry>
        </mxCell>
        <mxCell id="kNCdPxVCbltuEIP-QBrs-18" value="" style="endArrow=classic;html=1;strokeColor=#999900;strokeWidth=1;" edge="1" parent="1">
          <mxGeometry width="50" height="50" relative="1" as="geometry">
            <mxPoint x="770" y="181" as="sourcePoint" />
            <mxPoint x="210" y="321" as="targetPoint" />
          </mxGeometry>
        </mxCell>
        <mxCell id="kNCdPxVCbltuEIP-QBrs-19" value="&lt;font style=&quot;font-size: 8px&quot; color=&quot;#4d9900&quot;&gt;Session-2(srcPort2)-&lt;b&gt;SYN, ACK&lt;/b&gt;&lt;/font&gt;" style="text;html=1;align=center;verticalAlign=middle;resizable=0;points=[];" vertex="1" connectable="0" parent="kNCdPxVCbltuEIP-QBrs-18">
          <mxGeometry x="-0.0303" y="1" relative="1" as="geometry">
            <mxPoint as="offset" />
          </mxGeometry>
        </mxCell>
        <mxCell id="kNCdPxVCbltuEIP-QBrs-20" value="" style="endArrow=classic;html=1;strokeColor=#999900;strokeWidth=1;" edge="1" parent="1">
          <mxGeometry width="50" height="50" relative="1" as="geometry">
            <mxPoint x="770" y="200" as="sourcePoint" />
            <mxPoint x="210" y="340" as="targetPoint" />
          </mxGeometry>
        </mxCell>
        <mxCell id="kNCdPxVCbltuEIP-QBrs-21" value="&lt;font style=&quot;font-size: 8px&quot; color=&quot;#4d9900&quot;&gt;Session-3(srcPort3)-&lt;b&gt;SYN, ACK&lt;/b&gt;&lt;/font&gt;" style="text;html=1;align=center;verticalAlign=middle;resizable=0;points=[];" vertex="1" connectable="0" parent="kNCdPxVCbltuEIP-QBrs-20">
          <mxGeometry x="-0.0303" y="1" relative="1" as="geometry">
            <mxPoint as="offset" />
          </mxGeometry>
        </mxCell>
        <mxCell id="kNCdPxVCbltuEIP-QBrs-22" value="" style="endArrow=none;dashed=1;html=1;strokeColor=#4D9900;strokeWidth=1;" edge="1" parent="1">
          <mxGeometry width="50" height="50" relative="1" as="geometry">
            <mxPoint x="490" y="300" as="sourcePoint" />
            <mxPoint x="490" y="280" as="targetPoint" />
          </mxGeometry>
        </mxCell>
        <mxCell id="kNCdPxVCbltuEIP-QBrs-23" value="" style="endArrow=classic;html=1;strokeColor=#999900;strokeWidth=1;" edge="1" parent="1">
          <mxGeometry width="50" height="50" relative="1" as="geometry">
            <mxPoint x="770" y="240" as="sourcePoint" />
            <mxPoint x="210" y="380" as="targetPoint" />
          </mxGeometry>
        </mxCell>
        <mxCell id="kNCdPxVCbltuEIP-QBrs-24" value="&lt;font style=&quot;font-size: 8px&quot; color=&quot;#4d9900&quot;&gt;Session-n(srcPortn)-&lt;b&gt;SYN, ACK&lt;/b&gt;&lt;/font&gt;" style="text;html=1;align=center;verticalAlign=middle;resizable=0;points=[];" vertex="1" connectable="0" parent="kNCdPxVCbltuEIP-QBrs-23">
          <mxGeometry x="-0.0303" y="1" relative="1" as="geometry">
            <mxPoint as="offset" />
          </mxGeometry>
        </mxCell>
        <mxCell id="kNCdPxVCbltuEIP-QBrs-25" value="" style="endArrow=classic;html=1;strokeColor=#FF8000;strokeWidth=1;" edge="1" parent="1">
          <mxGeometry width="50" height="50" relative="1" as="geometry">
            <mxPoint x="210" y="390" as="sourcePoint" />
            <mxPoint x="770" y="430" as="targetPoint" />
          </mxGeometry>
        </mxCell>
        <mxCell id="kNCdPxVCbltuEIP-QBrs-26" value="&lt;font style=&quot;font-size: 8px&quot; color=&quot;#ff8000&quot;&gt;Session-1(srcPort1)-&lt;b&gt;ACK&lt;/b&gt;&lt;/font&gt;" style="text;html=1;align=center;verticalAlign=middle;resizable=0;points=[];" vertex="1" connectable="0" parent="kNCdPxVCbltuEIP-QBrs-25">
          <mxGeometry x="-0.0303" y="1" relative="1" as="geometry">
            <mxPoint as="offset" />
          </mxGeometry>
        </mxCell>
        <mxCell id="kNCdPxVCbltuEIP-QBrs-27" value="" style="endArrow=classic;html=1;strokeColor=#FF8000;strokeWidth=1;" edge="1" parent="1">
          <mxGeometry width="50" height="50" relative="1" as="geometry">
            <mxPoint x="210" y="410" as="sourcePoint" />
            <mxPoint x="770" y="450" as="targetPoint" />
          </mxGeometry>
        </mxCell>
        <mxCell id="kNCdPxVCbltuEIP-QBrs-28" value="&lt;font color=&quot;#ff8000&quot;&gt;&lt;span style=&quot;font-size: 8px&quot;&gt;Session-2(srcPort2)&lt;b&gt;ACK&lt;/b&gt;&lt;/span&gt;&lt;/font&gt;&lt;span style=&quot;font-size: 8px&quot;&gt;&lt;br&gt;&lt;/span&gt;" style="text;html=1;align=center;verticalAlign=middle;resizable=0;points=[];" vertex="1" connectable="0" parent="kNCdPxVCbltuEIP-QBrs-27">
          <mxGeometry x="-0.0445" y="-1" relative="1" as="geometry">
            <mxPoint as="offset" />
          </mxGeometry>
        </mxCell>
        <mxCell id="kNCdPxVCbltuEIP-QBrs-29" value="" style="endArrow=classic;html=1;strokeColor=#FF8000;strokeWidth=1;" edge="1" parent="1">
          <mxGeometry width="50" height="50" relative="1" as="geometry">
            <mxPoint x="210" y="430" as="sourcePoint" />
            <mxPoint x="770" y="470" as="targetPoint" />
          </mxGeometry>
        </mxCell>
        <mxCell id="kNCdPxVCbltuEIP-QBrs-30" value="&lt;font color=&quot;#ff8000&quot;&gt;&lt;span style=&quot;font-size: 8px&quot;&gt;Session-3(srcPort3)&lt;b&gt;ACK&lt;/b&gt;&lt;/span&gt;&lt;/font&gt;" style="text;html=1;align=center;verticalAlign=middle;resizable=0;points=[];" vertex="1" connectable="0" parent="kNCdPxVCbltuEIP-QBrs-29">
          <mxGeometry x="-0.0839" y="-1" relative="1" as="geometry">
            <mxPoint as="offset" />
          </mxGeometry>
        </mxCell>
        <mxCell id="kNCdPxVCbltuEIP-QBrs-31" value="" style="endArrow=classic;html=1;strokeColor=#FF8000;strokeWidth=1;" edge="1" parent="1">
          <mxGeometry width="50" height="50" relative="1" as="geometry">
            <mxPoint x="210" y="470" as="sourcePoint" />
            <mxPoint x="770" y="510" as="targetPoint" />
          </mxGeometry>
        </mxCell>
        <mxCell id="kNCdPxVCbltuEIP-QBrs-32" value="&lt;font color=&quot;#ff8000&quot;&gt;&lt;span style=&quot;font-size: 8px&quot;&gt;Session-n(srcPortn)&lt;b&gt;ACK&lt;/b&gt;&lt;/span&gt;&lt;/font&gt;" style="text;html=1;align=center;verticalAlign=middle;resizable=0;points=[];" vertex="1" connectable="0" parent="kNCdPxVCbltuEIP-QBrs-31">
          <mxGeometry x="-0.0965" relative="1" as="geometry">
            <mxPoint as="offset" />
          </mxGeometry>
        </mxCell>
        <mxCell id="kNCdPxVCbltuEIP-QBrs-33" value="" style="endArrow=none;dashed=1;html=1;strokeColor=#FF8000;strokeWidth=1;" edge="1" parent="1">
          <mxGeometry width="50" height="50" relative="1" as="geometry">
            <mxPoint x="490" y="480" as="sourcePoint" />
            <mxPoint x="490" y="460" as="targetPoint" />
          </mxGeometry>
        </mxCell>
        <mxCell id="kNCdPxVCbltuEIP-QBrs-34" value="" style="shape=curlyBracket;whiteSpace=wrap;html=1;rounded=1;" vertex="1" parent="1">
          <mxGeometry x="180" y="120" width="20" height="360" as="geometry" />
        </mxCell>
        <mxCell id="kNCdPxVCbltuEIP-QBrs-35" value="" style="shape=curlyBracket;whiteSpace=wrap;html=1;rounded=1;rotation=-180;size=0.3;" vertex="1" parent="1">
          <mxGeometry x="780" y="160" width="20" height="360" as="geometry" />
        </mxCell>
        <mxCell id="kNCdPxVCbltuEIP-QBrs-38" value="EVS" style="text;html=1;strokeColor=none;fillColor=none;align=center;verticalAlign=middle;whiteSpace=wrap;rounded=0;" vertex="1" parent="1">
          <mxGeometry x="190" y="50" width="40" height="20" as="geometry" />
        </mxCell>
        <mxCell id="kNCdPxVCbltuEIP-QBrs-39" value="EVS" style="text;html=1;strokeColor=none;fillColor=none;align=center;verticalAlign=middle;whiteSpace=wrap;rounded=0;" vertex="1" parent="1">
          <mxGeometry x="750" y="50" width="40" height="20" as="geometry" />
        </mxCell>
      </root>
    </mxGraphModel>
  </diagram>
</mxfile>
